<?xml version="1.0" encoding="utf-8"?>
<!-- Generator: Adobe Illustrator 21.0.0, SVG Export Plug-In . SVG Version: 6.00 Build 0)  -->
<svg version="1.1" id="Layer_1" xmlns="http://www.w3.org/2000/svg" xmlns:xlink="http://www.w3.org/1999/xlink" x="0px" y="0px"
	 viewBox="0 0 400 400" style="enable-background:new 0 0 400 400;" xml:space="preserve">
<style type="text/css">
	.st0{fill-rule:evenodd;clip-rule:evenodd;fill:#5A738E;}
</style>
<path class="st0" d="M316.9,140.9l-17.8-17.8L270.2,152l0,0c-6.1,6.1-16.1,6.1-22.2,0c-6.1-6.1-6.1-16.1,0-22.2l0,0l28.9-28.9
	l-17.8-17.8L230.2,112l0,0c-15.9,15.9-15.9,41.9,0,57.8c15.9,15.9,41.9,15.9,57.8,0c0,0,0,0,0,0L316.9,140.9L316.9,140.9z
	 M140.9,83.1l-17.8,17.8l28.9,28.9l0,0c6.1,6.1,6.1,16.1,0,22.2c-6.1,6.1-16.1,6.1-22.2,0l0,0l-28.9-28.9l-17.8,17.8l28.9,28.9l0,0
	c15.9,15.9,41.9,15.9,57.8,0c15.9-15.9,15.9-41.9,0-57.8c0,0,0,0,0,0L140.9,83.1L140.9,83.1z M83.1,259.1l17.8,17.8l28.9-28.9l0,0
	c6.1-6.1,16.1-6.1,22.2,0c6.1,6.1,6.1,16.1,0,22.2l0,0l-28.9,28.9l17.8,17.8l28.9-28.9l0,0c15.9-15.9,15.9-41.9,0-57.8
	c-15.9-15.9-41.9-15.9-57.8,0c0,0,0,0,0,0L83.1,259.1L83.1,259.1z M259.1,316.9l17.8-17.8L248,270.2l0,0c-6.1-6.1-6.1-16.1,0-22.2
	c6.1-6.1,16.1-6.1,22.2,0l0,0l28.9,28.9l17.8-17.8L288,230.2l0,0c-15.9-15.9-41.9-15.9-57.8,0c-15.9,15.9-15.9,41.9,0,57.8
	c0,0,0,0,0,0L259.1,316.9L259.1,316.9z"/>
<path class="st0" d="M350.9,182.2c9.8,0,17.8,8,17.8,17.8c0,9.8-8,17.8-17.8,17.8c-9.8,0-17.8-8-17.8-17.8
	C333.1,190.2,341.1,182.2,350.9,182.2L350.9,182.2z M49.1,217.8c-9.8,0-17.8-8-17.8-17.8c0-9.8,8-17.8,17.8-17.8
	c9.8,0,17.8,8,17.8,17.8C66.9,209.8,58.9,217.8,49.1,217.8L49.1,217.8z M146.6,212.6c6.9,0,12.6-5.6,12.6-12.6
	c0-6.9-5.7-12.6-12.6-12.6H70.9c2.1,3.7,3.4,8,3.4,12.6c0,4.6-1.2,8.9-3.4,12.6H146.6L146.6,212.6z M253.4,187.4
	c-6.9,0-12.6,5.6-12.6,12.6c0,6.9,5.7,12.6,12.6,12.6h75.7c-2.2-3.7-3.4-8-3.4-12.6c0-4.6,1.2-8.9,3.4-12.6H253.4L253.4,187.4z
	 M182.2,49.1c0-9.8,8-17.8,17.8-17.8c9.8,0,17.8,8,17.8,17.8c0,9.8-8,17.8-17.8,17.8C190.2,66.9,182.2,58.9,182.2,49.1L182.2,49.1z
	 M217.8,350.9c0,9.8-8,17.8-17.8,17.8c-9.8,0-17.8-8-17.8-17.8c0-9.8,8-17.8,17.8-17.8C209.8,333.1,217.8,341.1,217.8,350.9
	L217.8,350.9z M187.4,146.6c0,6.9,5.7,12.6,12.6,12.6c6.9,0,12.6-5.7,12.6-12.6V70.9c-3.7,2.1-8,3.4-12.6,3.4
	c-4.6,0-8.9-1.2-12.6-3.4V146.6L187.4,146.6z M212.6,253.4c0-6.9-5.7-12.6-12.6-12.6c-6.9,0-12.6,5.7-12.6,12.6v75.7
	c3.7-2.2,8-3.4,12.6-3.4c4.6,0,8.9,1.2,12.6,3.4V253.4L212.6,253.4z"/>
</svg>
