<?xml version="1.0" encoding="utf-8"?>
<!-- Generator: Adobe Illustrator 21.0.0, SVG Export Plug-In . SVG Version: 6.00 Build 0)  -->
<svg version="1.1" id="Layer_1" xmlns="http://www.w3.org/2000/svg" xmlns:xlink="http://www.w3.org/1999/xlink" x="0px" y="0px"
	 viewBox="0 0 400 400" style="enable-background:new 0 0 400 400;" xml:space="preserve">
<style type="text/css">
	.st0{fill-rule:evenodd;clip-rule:evenodd;fill:#EDF0F1;}
</style>
<path class="st0" d="M358.2,226.5l-13.4-13.4L323,234.8l0,0c-4.6,4.6-12.1,4.6-16.7,0c-4.6-4.6-4.6-12.1,0-16.7l0,0l21.8-21.8
	l-13.4-13.4l-21.8,21.7l0,0c-12,12-12,31.5,0,43.5c12,12,31.5,12,43.5,0c0,0,0,0,0,0L358.2,226.5L358.2,226.5z M225.6,182.9
	l-13.4,13.4l21.8,21.8l0,0c4.6,4.6,4.6,12.1,0,16.7c-4.6,4.6-12.1,4.6-16.7,0l0,0l-21.8-21.8l-13.4,13.4l21.8,21.8l0,0
	c12,12,31.5,12,43.5,0c12-12,12-31.5,0-43.5c0,0,0,0,0,0L225.6,182.9L225.6,182.9z M182.1,315.5l13.4,13.4l21.8-21.8l0,0
	c4.6-4.6,12.1-4.6,16.7,0c4.6,4.6,4.6,12.1,0,16.7l0,0l-21.8,21.8l13.4,13.4l21.8-21.7l0,0c12-12,12-31.5,0-43.5
	c-12-12-31.5-12-43.5,0c0,0,0,0,0,0L182.1,315.5L182.1,315.5z M314.7,359l13.4-13.4l-21.8-21.8l0,0c-4.6-4.6-4.6-12.1,0-16.7
	c4.6-4.6,12.1-4.6,16.7,0l0,0l21.8,21.8l13.4-13.4l-21.8-21.8l0,0c-12-12-31.5-12-43.5,0c-12,12-12,31.5,0,43.5c0,0,0,0,0,0
	L314.7,359L314.7,359z"/>
<path class="st0" d="M383.7,257.6c7.4,0,13.4,6,13.4,13.4c0,7.4-6,13.4-13.4,13.4c-7.4,0-13.4-6-13.4-13.4
	C370.4,263.6,376.4,257.6,383.7,257.6L383.7,257.6z M156.5,284.4c-7.4,0-13.4-6-13.4-13.4c0-7.4,6-13.4,13.4-13.4
	c7.4,0,13.4,6,13.4,13.4C169.9,278.3,163.9,284.4,156.5,284.4L156.5,284.4z M229.9,280.4c5.2,0,9.5-4.3,9.5-9.5
	c0-5.2-4.3-9.5-9.5-9.5h-57c1.6,2.8,2.5,6,2.5,9.5c0,3.5-0.9,6.7-2.5,9.5H229.9L229.9,280.4z M310.4,261.5c-5.2,0-9.5,4.2-9.5,9.5
	c0,5.2,4.3,9.5,9.5,9.5h57c-1.6-2.8-2.5-6-2.5-9.5c0-3.5,0.9-6.7,2.5-9.5H310.4L310.4,261.5z M256.8,157.4c0-7.4,6-13.4,13.4-13.4
	c7.4,0,13.4,6,13.4,13.4c0,7.4-6,13.4-13.4,13.4C262.8,170.7,256.8,164.7,256.8,157.4L256.8,157.4z M283.5,384.6
	c0,7.4-6,13.4-13.4,13.4c-7.4,0-13.4-6-13.4-13.4c0-7.4,6-13.4,13.4-13.4C277.5,371.2,283.5,377.2,283.5,384.6L283.5,384.6z
	 M260.7,230.7c0,5.2,4.3,9.5,9.5,9.5c5.2,0,9.5-4.3,9.5-9.5v-57c-2.8,1.6-6,2.5-9.5,2.5c-3.5,0-6.7-0.9-9.5-2.5V230.7L260.7,230.7z
	 M279.6,311.2c0-5.2-4.3-9.5-9.5-9.5c-5.2,0-9.5,4.3-9.5,9.5v57c2.8-1.6,6-2.5,9.5-2.5c3.5,0,6.7,0.9,9.5,2.5V311.2L279.6,311.2z"/>
</svg>
